<?xml version="1.0" encoding="UTF-8"?>
<svg width="200" height="200" viewBox="0 0 200 200" fill="none" xmlns="http://www.w3.org/2000/svg">
  <defs>
    <linearGradient id="primaryGradient" x1="0%" y1="0%" x2="100%" y2="100%">
      <stop offset="0%" style="stop-color:#4F46E5"/>
      <stop offset="50%" style="stop-color:#7C3AED"/>
      <stop offset="100%" style="stop-color:#EC4899"/>
    </linearGradient>
    <linearGradient id="secondaryGradient" x1="100%" y1="0%" x2="0%" y2="100%">
      <stop offset="0%" style="stop-color:#4F46E5"/>
      <stop offset="100%" style="stop-color:#7C3AED"/>
    </linearGradient>
  </defs>
  <circle cx="100" cy="100" r="90" fill="url(#primaryGradient)" opacity="0.9"/>
  <circle cx="100" cy="100" r="70" fill="url(#secondaryGradient)" opacity="0.4"/>
  <circle cx="100" cy="100" r="80" stroke="white" stroke-width="1" stroke-dasharray="2 4" opacity="0.2"/>
  <circle cx="100" cy="100" r="60" stroke="white" stroke-width="1" stroke-dasharray="4 2" opacity="0.3"/>
  <path d="M75 140 
           C65 140, 65 60, 75 60 
           C85 60, 115 60, 125 60
           C135 60, 135 100, 125 100
           C135 100, 135 140, 125 140
           C115 140, 85 140, 75 140
           Z" 
        stroke="white" 
        stroke-width="3"
        fill="white"
        fill-opacity="0.1"/>
  <path d="M60 100 Q100 60 140 100 Q100 140 60 100" 
        stroke="white" 
        stroke-width="2"
        opacity="0.4"
        fill="none"/>
  <circle cx="75" cy="60" r="4" fill="white" opacity="0.9"/>
  <circle cx="125" cy="60" r="4" fill="white" opacity="0.9"/>
  <circle cx="75" cy="140" r="4" fill="white" opacity="0.9"/>
  <circle cx="125" cy="140" r="4" fill="white" opacity="0.9"/>
  <circle cx="100" cy="40" r="2" fill="white" opacity="0.6"/>
  <circle cx="100" cy="160" r="2" fill="white" opacity="0.6"/>
  <circle cx="40" cy="100" r="2" fill="white" opacity="0.6"/>
  <circle cx="160" cy="100" r="2" fill="white" opacity="0.6"/>
  <path d="M85 70 L115 130" stroke="white" stroke-width="1.5" opacity="0.3"/>
  <path d="M85 130 L115 70" stroke="white" stroke-width="1.5" opacity="0.3"/>
</svg>